HIERARCHY
ROOT Hips
{
	OFFSET 0.000000 0.000000 0.000000
	CHANNELS 6 Xposition Yposition Zposition Zrotation Yrotation Xrotation 
	JOINT LHipJoint
	{
		OFFSET 0.000000 0.000000 0.000000
		CHANNELS 3 Zrotation Yrotation Xrotation
		JOINT LeftUpLeg
		{
			OFFSET 1.363060 -1.794630 0.839290
			CHANNELS 3 Zrotation Yrotation Xrotation
			JOINT LeftLeg
			{
				OFFSET 2.448110 -6.726130 0.000000
				CHANNELS 3 Zrotation Yrotation Xrotation
				JOINT LeftFoot
				{
					OFFSET 2.562200 -7.039590 0.000000
					CHANNELS 3 Zrotation Yrotation Xrotation
					JOINT LeftToeBase
					{
						OFFSET 0.157640 -0.433110 2.322550
						CHANNELS 3 Zrotation Yrotation Xrotation
						End Site
						{
							OFFSET 0.000000 0.000000 0.000000
						}
					}
				}
			}
		}
	}
	JOINT RHipJoint
	{
		OFFSET 0.000000 0.000000 0.000000
		CHANNELS 3 Zrotation Yrotation Xrotation
		JOINT RightUpLeg
		{
			OFFSET -1.305520 -1.794630 0.839290
			CHANNELS 3 Zrotation Yrotation Xrotation
			JOINT RightLeg
			{
				OFFSET -2.542530 -6.985550 0.000000
				CHANNELS 3 Zrotation Yrotation Xrotation
				JOINT RightFoot
				{
					OFFSET -2.568260 -7.056230 0.000000
					CHANNELS 3 Zrotation Yrotation Xrotation
					JOINT RightToeBase
					{
						OFFSET -0.164730 -0.452590 2.363150
						CHANNELS 3 Zrotation Yrotation Xrotation
						End Site
						{
							OFFSET 0.000000 0.000000 0.000000
						}
					}
				}
			}
		}
	}
	JOINT LowerBack
	{
		OFFSET 0.000000 0.000000 0.000000
		CHANNELS 3 Zrotation Yrotation Xrotation
		JOINT Spine
		{
			OFFSET 0.028270 2.035590 -0.193380
			CHANNELS 3 Zrotation Yrotation Xrotation
			JOINT Spine1
			{
				OFFSET 0.056720 2.048850 -0.042750
				CHANNELS 3 Zrotation Yrotation Xrotation
				JOINT Neck
				{
					OFFSET 0.000000 0.000000 0.000000
					CHANNELS 3 Zrotation Yrotation Xrotation
					JOINT Neck1
					{
						OFFSET -0.054170 1.746240 0.172020
						CHANNELS 3 Zrotation Yrotation Xrotation
						JOINT Head
						{
							OFFSET 0.104070 1.761360 -0.123970
							CHANNELS 3 Zrotation Yrotation Xrotation
							End Site
							{
								OFFSET 0.000000 0.000000 0.000000
							}
						}
					}
				}
				JOINT LeftShoulder
				{
					OFFSET 0.000000 0.000000 0.000000
					CHANNELS 3 Zrotation Yrotation Xrotation
					JOINT LeftArm
					{
						OFFSET 3.362410 1.200890 -0.311210
						CHANNELS 3 Zrotation Yrotation Xrotation
						JOINT LeftForeArm
						{
							OFFSET 4.983000 -0.000000 -0.000000
							CHANNELS 3 Zrotation Yrotation Xrotation
							JOINT LeftHand
							{
								OFFSET 3.483560 -0.000000 -0.000000
								CHANNELS 3 Zrotation Yrotation Xrotation
								JOINT LeftFingerBase
								{
									OFFSET 0.000000 0.000000 0.000000
									CHANNELS 3 Zrotation Yrotation Xrotation
									JOINT LeftHandIndex1
									{
										OFFSET 0.715260 -0.000000 -0.000000
										CHANNELS 3 Zrotation Yrotation Xrotation
										End Site
										{
											OFFSET 0.000000 0.000000 0.000000
										}
									}
								}
								JOINT LThumb
								{
									OFFSET 0.000000 0.000000 0.000000
									CHANNELS 3 Zrotation Yrotation Xrotation
									End Site
									{
										OFFSET 0.000000 0.000000 0.000000
									}
								}
							}
						}
					}
				}
				JOINT RightShoulder
				{
					OFFSET 0.000000 0.000000 0.000000
					CHANNELS 3 Zrotation Yrotation Xrotation
					JOINT RightArm
					{
						OFFSET -3.136600 1.374050 -0.404650
						CHANNELS 3 Zrotation Yrotation Xrotation
						JOINT RightForeArm
						{
							OFFSET -5.241900 -0.000000 -0.000000
							CHANNELS 3 Zrotation Yrotation Xrotation
							JOINT RightHand
							{
								OFFSET -3.444170 -0.000000 -0.000000
								CHANNELS 3 Zrotation Yrotation Xrotation
								JOINT RightFingerBase
								{
									OFFSET 0.000000 0.000000 0.000000
									CHANNELS 3 Zrotation Yrotation Xrotation
									JOINT RightHandIndex1
									{
										OFFSET -0.622530 -0.000000 -0.000000
										CHANNELS 3 Zrotation Yrotation Xrotation
										End Site
										{
											OFFSET 0.000000 0.000000 0.000000
										}
									}
								}
								JOINT RThumb
								{
									OFFSET 0.000000 0.000000 0.000000
									CHANNELS 3 Zrotation Yrotation Xrotation
									End Site
									{
										OFFSET 0.000000 0.000000 0.000000
									}
								}
							}
						}
					}
				}
			}
		}
	}
}
MOTION
Frames: 6
Frame Time: 0.008333
21.917404 17.302715 -22.785852 6.116875 -37.515333 24.172867 7.117897 2.075290 -1.263167 -26.819863 -21.014945 -29.936960 0.288010 12.450212 33.010783 -0.686348 6.536928 -8.575437 1.144100 -6.792200 -19.101200 -12.458607 -3.607894 0.692771 20.701940 21.775483 -59.017188 -16.899836 -24.955456 83.583396 0.518954 -4.371539 7.788794 -0.396300 4.041900 -11.194500 0.864611 -1.425804 28.473683 0.716806 -1.538996 1.316399 -0.663251 -0.577962 -3.490820 -6.676548 1.444735 -14.098786 6.914329 2.130762 -7.741347 3.093600 1.227300 -4.495100 2.687898 -12.815862 3.164968 -84.618466 -36.956434 42.581062 105.958996 -53.667707 -77.423496 0.925139 -1.046805 70.224106 -37.417007 39.461126 -26.280900 -7.125000 0.000000 0.000000 -73.833600 53.833600 -26.777200 -2.785385 12.310127 7.252846 70.248512 55.774829 42.593579 -104.363483 47.706673 -74.666117 -0.270883 -0.381191 21.585476 11.447745 -6.949991 -1.323100 7.125000 0.000000 0.000000 30.849000 -34.824900 8.815200 
21.765655 17.333980 -22.595974 7.088319 -38.427231 22.446280 6.756811 2.329496 -1.101697 -28.529239 -19.583445 -26.561798 -0.183546 11.324739 30.669615 -0.780139 6.756277 -8.128345 1.208500 -6.974000 -19.638400 -12.423286 -3.658472 0.664492 19.242226 21.468119 -60.481870 -16.921622 -25.138699 83.553396 0.621509 -6.071606 6.387977 -0.441200 4.262000 -11.814900 -0.064068 -1.238285 29.157817 0.524369 -1.555475 1.389248 -0.780095 -0.592883 -3.574844 -6.612173 1.526601 -14.123677 6.930881 2.247468 -7.755947 3.079500 1.275800 -4.500500 2.635282 -12.788645 3.146582 -84.423792 -36.853941 42.167839 106.433456 -53.619484 -77.830025 0.951529 -1.028684 69.690188 -37.992292 38.624240 -26.303400 -7.125000 0.000000 0.000000 -73.133800 53.295800 -25.074900 -2.810987 12.278732 7.362909 70.547328 56.126105 42.836748 -104.544796 47.682804 -74.824570 -0.276795 -0.401298 21.833155 12.751440 -7.030944 -1.489500 7.125000 0.000000 0.000000 31.804100 -34.765800 9.229800 
21.602903 17.401303 -22.397491 8.017641 -39.189962 21.017920 6.530604 2.539644 -0.957227 -29.867996 -18.574881 -23.995584 -0.431365 10.592174 29.277569 -0.867017 6.994199 -7.698171 1.308600 -7.246300 -20.447000 -12.390165 -3.691332 0.609176 17.873330 21.244486 -61.584716 -16.405576 -25.232661 82.114421 0.666435 -6.889109 5.625377 -0.398000 4.050700 -11.219400 -0.726346 -1.086761 29.491602 0.301738 -1.582376 1.464697 -1.139092 -0.608511 -3.506650 -6.570464 1.546013 -14.126680 6.964753 2.280899 -7.802115 3.090200 1.289400 -4.535900 2.580221 -12.735547 3.119595 -84.126742 -36.914561 42.157817 106.418379 -53.610461 -77.804006 0.949391 -1.027692 68.887907 -38.183691 39.043127 -26.683800 -7.125000 0.000000 0.000000 -73.792600 53.464600 -25.947000 -2.846009 12.215166 7.521254 71.045140 56.626766 42.882317 -104.479122 47.693581 -74.751965 -0.255021 -0.421287 22.047198 13.853762 -5.806615 -1.313600 7.125000 0.000000 0.000000 32.126400 -33.593500 10.450800 
21.442874 17.426577 -22.207940 8.521503 -39.738945 20.574833 6.379977 2.673683 -0.836888 -30.405027 -18.285825 -22.454343 -0.624459 10.064135 28.140775 -0.970228 7.257548 -6.748282 1.214400 -6.990500 -19.687100 -12.420033 -3.720549 0.602312 16.574280 21.515536 -63.247443 -15.709343 -25.326276 80.236600 0.662489 -7.041254 5.225264 -0.198900 2.871700 -7.921700 -1.582557 -0.798329 29.716341 0.407372 -1.384693 1.253472 -0.319166 -0.527515 -4.142478 -7.216318 1.631993 -14.185386 6.830153 2.423393 -7.576717 3.138600 1.404200 -4.381500 2.621535 -12.894755 3.127690 -84.911847 -36.678229 42.285341 106.550625 -53.639170 -77.886200 0.926146 -1.033384 67.886620 -37.904050 40.360997 -27.146400 -7.125000 0.000000 0.000000 -75.325600 54.163800 -28.688100 -2.849929 12.298842 7.292538 70.503886 55.858262 42.789878 -104.548085 47.657843 -74.835125 -0.238955 -0.443290 22.051706 14.376604 -4.611887 -1.052500 7.125000 0.000000 0.000000 32.058400 -32.492100 11.450200 
21.274784 17.440303 -22.027213 8.754037 -40.289279 20.774590 6.357724 2.716182 -0.800762 -30.592561 -18.276946 -21.852939 -0.661349 9.888294 27.790507 -1.040738 7.396715 -5.595109 1.235900 -7.049800 -19.863000 -12.439259 -3.752061 0.602012 15.315425 22.316075 -64.962484 -14.692964 -25.340162 77.576997 0.649469 -6.992586 4.045808 -0.123700 2.267500 -6.245700 -1.764301 -0.770102 29.188878 0.269332 -1.421378 1.193456 -0.681330 -0.545462 -4.061368 -7.140304 1.768174 -14.181949 6.826744 2.610110 -7.734525 3.127200 1.488800 -4.491400 2.599163 -12.837368 3.079548 -84.409566 -36.466328 41.882019 107.136206 -53.588135 -78.368472 0.929857 -1.025495 66.991662 -38.023591 40.838602 -27.484600 -7.125000 0.000000 0.000000 -76.020600 54.357000 -29.684300 -2.887972 12.224607 7.444893 71.086922 56.362321 43.190494 -104.882184 47.653938 -75.153893 -0.243027 -0.459335 22.170280 15.363472 -4.689945 -1.143700 7.125000 0.000000 0.000000 32.749300 -32.459300 11.819500 
21.092641 17.495098 -21.840713 8.459973 -40.827493 21.259889 6.379359 2.712094 -0.792144 -30.323091 -18.137458 -21.819574 -0.483706 10.097365 28.484089 -1.005729 7.015801 -4.488495 1.115800 -6.710600 -18.860800 -12.447097 -3.757652 0.594994 14.687088 23.389923 -65.747993 -13.320537 -25.137180 74.037610 0.606164 -6.613700 2.452708 -0.093200 1.968900 -5.419600 -1.771089 -0.610706 28.831369 0.203017 -1.226601 1.157660 -0.925583 -0.461504 -3.958228 -7.078980 1.767904 -14.477463 6.865461 2.629682 -7.779996 3.141200 1.498100 -4.461700 2.596870 -12.800733 3.046207 -84.068079 -36.452242 41.581919 107.349448 -53.544383 -78.561457 0.949380 -1.021798 66.626097 -37.736338 40.474814 -27.071800 -7.125000 0.000000 0.000000 -75.365800 54.250300 -28.906200 -2.906367 12.176554 7.554059 71.194634 56.840557 43.070360 -105.207539 47.581792 -75.497350 -0.251311 -0.473623 22.059228 16.086407 -4.879394 -1.249700 7.125000 0.000000 0.000000 33.299000 -32.543500 12.011300 
